<svg width="351" height="200" viewBox="0 0 351 200" fill="none" xmlns="http://www.w3.org/2000/svg">
<rect width="350" height="200" transform="translate(0.5)" fill="#2D323B"/>
<path d="M99.5428 45.8837L96.1941 45.1528L95.4318 41.8104C95.4189 41.7532 95.3869 41.702 95.3411 41.6654C95.2953 41.6287 95.2384 41.6088 95.1798 41.6088C95.1208 41.6092 95.0638 41.6292 95.0175 41.6658C94.9713 41.7023 94.9386 41.7532 94.9246 41.8104L94.1622 45.1686L90.8135 45.9624C90.7558 45.9766 90.7045 46.0098 90.6679 46.0566C90.6313 46.1035 90.6116 46.1613 90.6119 46.2208C90.6122 46.2795 90.6327 46.3363 90.67 46.3816C90.7073 46.4269 90.7591 46.458 90.8167 46.4696L94.1654 47.2005L94.9246 50.5429C94.9386 50.6001 94.9713 50.651 95.0175 50.6875C95.0638 50.724 95.1208 50.7441 95.1798 50.7445C95.2384 50.7445 95.2953 50.7245 95.3411 50.6879C95.3869 50.6513 95.4189 50.6001 95.4318 50.5429L96.1973 47.1847L99.546 46.3909C99.6049 46.3794 99.6579 46.3479 99.6961 46.3016C99.7343 46.2554 99.7551 46.1972 99.7551 46.1373C99.7551 46.0773 99.7343 46.0192 99.6961 45.9729C99.6579 45.9266 99.6049 45.8951 99.546 45.8837H99.5428ZM212.007 13.1211L208.658 12.3902L207.896 9.04781C207.883 8.99059 207.851 8.93944 207.805 8.9028C207.759 8.86615 207.702 8.84619 207.644 8.84619C207.585 8.8466 207.528 8.86665 207.481 8.90317C207.435 8.93969 207.403 8.9906 207.388 9.04781L206.626 12.406L203.277 13.1998C203.22 13.214 203.168 13.2472 203.132 13.294C203.095 13.3409 203.076 13.3987 203.076 13.4582C203.076 13.5169 203.097 13.5737 203.134 13.619C203.171 13.6643 203.223 13.6954 203.281 13.707L206.629 14.4379L207.388 17.7803C207.403 17.8375 207.435 17.8884 207.481 17.9249C207.528 17.9615 207.585 17.9815 207.644 17.9819C207.702 17.9819 207.759 17.962 207.805 17.9253C207.851 17.8887 207.883 17.8375 207.896 17.7803L208.661 14.4221L212.01 13.6283C212.069 13.6168 212.122 13.5853 212.16 13.539C212.198 13.4928 212.219 13.4347 212.219 13.3747C212.219 13.3147 212.198 13.2566 212.16 13.2103C212.122 13.164 212.069 13.1325 212.01 13.1211H212.007ZM105.626 31.528L103.893 31.15L103.503 29.4205C103.496 29.3903 103.479 29.3633 103.455 29.344C103.431 29.3246 103.401 29.3141 103.37 29.3141C103.34 29.3141 103.31 29.3246 103.286 29.344C103.261 29.3633 103.245 29.3903 103.238 29.4205L102.844 31.1594L101.112 31.5689C101.082 31.576 101.056 31.593 101.037 31.617C101.018 31.641 101.008 31.6707 101.008 31.7012C101.008 31.7318 101.019 31.7614 101.038 31.785C101.058 31.8085 101.085 31.8246 101.115 31.8304L102.847 32.2084L103.238 33.9379C103.245 33.9681 103.261 33.9951 103.286 34.0144C103.31 34.0338 103.34 34.0443 103.37 34.0443C103.401 34.0443 103.431 34.0338 103.455 34.0144C103.479 33.9951 103.496 33.9681 103.503 33.9379L103.896 32.199L105.629 31.7895C105.659 31.7819 105.685 31.7648 105.703 31.7409C105.722 31.717 105.733 31.6876 105.733 31.6571C105.733 31.6266 105.722 31.597 105.703 31.5734C105.683 31.5499 105.656 31.5338 105.626 31.528ZM247.699 179.139L251.048 178.408L251.807 175.066C251.821 175.009 251.854 174.958 251.9 174.921C251.946 174.885 252.003 174.865 252.062 174.864C252.121 174.864 252.178 174.884 252.224 174.921C252.269 174.958 252.301 175.009 252.314 175.066L253.08 178.424L256.428 179.218C256.487 179.229 256.54 179.261 256.579 179.307C256.617 179.353 256.638 179.412 256.638 179.472C256.638 179.532 256.617 179.59 256.579 179.636C256.54 179.682 256.487 179.714 256.428 179.725L253.08 180.456L252.317 183.798C252.304 183.856 252.273 183.907 252.227 183.943C252.181 183.98 252.124 184 252.065 184C252.006 184 251.949 183.98 251.903 183.943C251.857 183.907 251.824 183.856 251.81 183.798L251.048 180.44L247.699 179.646C247.641 179.632 247.59 179.599 247.553 179.552C247.517 179.505 247.497 179.448 247.497 179.388C247.498 179.33 247.518 179.273 247.554 179.228C247.591 179.183 247.642 179.151 247.699 179.139ZM241.616 164.784L243.349 164.406L243.739 162.676C243.746 162.646 243.763 162.619 243.787 162.6C243.811 162.58 243.841 162.57 243.872 162.57C243.902 162.57 243.932 162.58 243.956 162.6C243.98 162.619 243.997 162.646 244.004 162.676L244.398 164.415L246.13 164.824C246.16 164.832 246.186 164.849 246.205 164.873C246.223 164.897 246.234 164.926 246.234 164.957C246.234 164.987 246.223 165.017 246.204 165.041C246.184 165.064 246.157 165.08 246.127 165.086L244.394 165.464L244.004 167.193C243.997 167.224 243.98 167.251 243.956 167.27C243.932 167.289 243.902 167.3 243.872 167.3C243.841 167.3 243.811 167.289 243.787 167.27C243.763 167.251 243.746 167.224 243.739 167.193L243.345 165.455L241.613 165.045C241.583 165.038 241.557 165.021 241.538 164.997C241.519 164.973 241.509 164.943 241.509 164.913C241.509 164.882 241.52 164.853 241.539 164.829C241.559 164.805 241.586 164.789 241.616 164.784ZM234.156 59.2502L232.424 58.8721L232.033 57.1427C232.026 57.1125 232.01 57.0855 231.985 57.0662C231.961 57.0468 231.931 57.0362 231.901 57.0362C231.87 57.0362 231.84 57.0468 231.816 57.0662C231.792 57.0855 231.775 57.1125 231.768 57.1427L231.374 58.8816L229.642 59.2911C229.612 59.2982 229.586 59.3152 229.567 59.3392C229.548 59.3632 229.538 59.3929 229.538 59.4234C229.538 59.454 229.549 59.4836 229.568 59.5072C229.588 59.5307 229.615 59.5468 229.645 59.5526L231.378 59.9306L231.768 61.6601C231.775 61.6903 231.792 61.7173 231.816 61.7366C231.84 61.756 231.87 61.7665 231.901 61.7665C231.931 61.7665 231.961 61.756 231.985 61.7366C232.01 61.7173 232.026 61.6903 232.033 61.6601L232.427 59.9212L234.159 59.5116C234.189 59.504 234.215 59.487 234.234 59.4631C234.252 59.4392 234.263 59.4097 234.263 59.3793C234.263 59.3488 234.252 59.3192 234.233 59.2956C234.213 59.2721 234.186 59.256 234.156 59.2502ZM128.21 177.564L124.861 176.833L124.099 173.491C124.086 173.434 124.054 173.382 124.008 173.346C123.963 173.309 123.906 173.289 123.847 173.289C123.788 173.29 123.731 173.31 123.685 173.346C123.639 173.383 123.606 173.434 123.592 173.491L122.829 176.849L119.481 177.643C119.423 177.657 119.372 177.69 119.335 177.737C119.299 177.784 119.279 177.842 119.279 177.901C119.279 177.96 119.3 178.017 119.337 178.062C119.375 178.107 119.426 178.138 119.484 178.15L122.833 178.881L123.592 182.223C123.606 182.281 123.639 182.331 123.685 182.368C123.731 182.404 123.788 182.425 123.847 182.425C123.906 182.425 123.963 182.405 124.008 182.368C124.054 182.332 124.086 182.281 124.099 182.223L124.865 178.865L128.213 178.071C128.272 178.06 128.325 178.028 128.363 177.982C128.402 177.936 128.422 177.878 128.422 177.818C128.422 177.758 128.402 177.7 128.363 177.653C128.325 177.607 128.272 177.576 128.213 177.564H128.21Z" fill="#4F3CC9"/>
<path d="M240.658 33.8275C240.658 33.8275 242.435 29.3227 239.304 22.3543C239.26 22.2566 239.188 22.1744 239.097 22.1188C239.005 22.0631 238.899 22.0366 238.793 22.0427C238.686 22.0489 238.584 22.0874 238.499 22.1532C238.415 22.219 238.353 22.3089 238.321 22.411C237.817 24.0019 236.925 26.6229 236.216 27.6719L240.658 33.8275ZM233.829 37.0282C233.829 37.0282 229.223 35.5097 225.884 28.639C225.836 28.543 225.819 28.4348 225.835 28.3289C225.851 28.223 225.899 28.1245 225.972 28.0464C226.045 27.9683 226.14 27.9145 226.245 27.892C226.35 27.8696 226.459 27.8796 226.558 27.9208C228.101 28.5508 230.685 29.5463 231.945 29.6723L233.829 37.0282Z" fill="#F582AE"/>
<path d="M237.936 28.6674C237.521 28.1319 237.083 27.5837 236.626 27.0293L231.195 29.5747C231.327 30.2804 231.469 30.9671 231.614 31.6287C233.838 41.6906 237.514 46.5041 240.368 48.8007L245.557 46.3687C245.604 42.7112 244.243 36.814 237.936 28.6674Z" fill="#4F3CC9"/>
<path d="M240.337 44.381C241.656 44.381 242.725 43.3119 242.725 41.9931C242.725 40.6743 241.656 39.6052 240.337 39.6052C239.018 39.6052 237.949 40.6743 237.949 41.9931C237.949 43.3119 239.018 44.381 240.337 44.381Z" fill="white"/>
<path d="M240.368 48.8008L245.557 46.3688C245.513 49.3584 244.53 50.8516 244.53 50.8516L244.486 50.8705C244.486 50.8705 242.7 50.6783 240.368 48.8008ZM237.297 35.2169C237.151 35.2856 236.986 35.2976 236.832 35.2504C236.678 35.2032 236.547 35.1002 236.465 34.9617L234.49 31.5941C234.084 30.9014 233.742 30.1727 233.469 29.4173L232.149 25.7441C232.092 25.5933 232.095 25.4263 232.157 25.2774C232.219 25.1286 232.336 25.0092 232.483 24.9439C232.628 24.8726 232.795 24.8596 232.949 24.9077C233.103 24.9558 233.233 25.0612 233.312 25.2023L235.287 28.5667C235.694 29.259 236.036 29.9878 236.308 30.7436L237.631 34.4167C237.688 34.5675 237.686 34.7345 237.623 34.8834C237.561 35.0323 237.444 35.1516 237.297 35.2169Z" fill="#F582AE"/>
<path d="M233.233 23.4254C233.192 23.3372 229.217 14.485 223.193 13.0926L223.48 11.864C230.118 13.4013 234.213 22.5276 234.386 22.9151L233.233 23.4254ZM229.815 24.2823C229.815 24.2508 228.375 21.0816 225.358 19.5254L225.934 18.4071C229.358 20.1744 230.905 23.6302 230.974 23.7625L229.815 24.2823Z" fill="#4F3CC9"/>
<path d="M130.277 53.652L140.402 102.752L201.201 90.2138L191.061 41.114C190.918 40.4198 190.639 39.7605 190.242 39.1739C189.844 38.5873 189.334 38.0848 188.742 37.6951C188.15 37.3054 187.487 37.0362 186.791 36.9029C186.094 36.7695 185.379 36.7746 184.685 36.9179L134.47 47.2791C133.776 47.4221 133.117 47.7004 132.531 48.0981C131.944 48.4958 131.442 49.0051 131.053 49.5969C130.664 50.1887 130.395 50.8515 130.261 51.5472C130.128 52.243 130.133 52.9582 130.277 53.652Z" fill="#77E0B5"/>
<path d="M132.92 62.2744L143.653 111.245L204.279 97.9573L193.546 48.9866C193.239 47.5886 192.389 46.3697 191.183 45.5977C189.978 44.8257 188.515 44.5637 187.117 44.8693L137.028 55.8479C136.336 56.0001 135.681 56.2871 135.1 56.6925C134.519 57.0978 134.024 57.6136 133.643 58.2104C133.261 58.8071 133.001 59.4732 132.877 60.1705C132.753 60.8678 132.768 61.5827 132.92 62.2744Z" fill="#4F3CC9"/>
<path d="M236.853 120.68C234.106 153.443 205.312 177.785 172.547 175.034C164.756 174.384 157.169 172.204 150.22 168.62C143.272 165.037 137.097 160.119 132.049 154.149C127.002 148.178 123.18 141.271 120.802 133.823C118.425 126.375 117.538 118.532 118.192 110.741C120.939 77.9784 149.733 53.6364 182.498 56.3866C190.292 57.0309 197.882 59.2062 204.834 62.7877C211.786 66.3693 217.963 71.2868 223.012 77.2589C228.06 83.2309 231.882 90.1401 234.257 97.5909C236.632 105.042 237.514 112.888 236.853 120.68Z" fill="#F582AE"/>
<path d="M177.628 176.206C175.914 176.206 174.194 176.134 172.468 175.989C160.532 174.998 149.158 170.489 139.786 163.032C130.413 155.575 123.463 145.505 119.816 134.097C116.168 122.688 115.987 110.455 119.295 98.9433C122.602 87.4319 129.25 77.1605 138.398 69.4288C147.545 61.6971 158.78 56.8526 170.682 55.5084C182.583 54.1641 194.616 56.3806 205.257 61.8773C215.898 67.3739 224.67 75.9037 230.462 86.3873C236.254 96.8708 238.806 108.837 237.795 120.771C236.532 135.87 229.649 149.944 218.507 160.211C207.365 170.478 192.776 176.189 177.625 176.216L177.628 176.206ZM177.42 57.1268C162.746 57.1544 148.616 62.6872 137.825 72.631C127.033 82.5749 120.366 96.206 119.141 110.829C117.411 131.438 126.386 151.007 143.136 163.174C151.545 169.268 161.423 173.018 171.757 174.039C182.092 175.06 192.513 173.317 201.952 168.986C211.391 164.656 219.51 157.895 225.477 149.395C231.444 140.896 235.045 130.963 235.911 120.614C236.564 112.944 235.698 105.221 233.362 97.8865C231.026 90.5521 227.266 83.7507 222.297 77.8719C217.328 71.9931 211.248 67.1525 204.405 63.6273C197.562 60.102 190.091 57.9615 182.42 57.3284C180.748 57.1877 179.081 57.1173 177.42 57.1173V57.1268Z" fill="#4F3CC9"/>
<path d="M152.287 55.9391C150.012 57.42 147.975 59.2398 146.248 61.3355C145.833 61.8269 145.417 62.3499 145.01 62.9106L144.973 62.9579C144.204 64.0185 143.513 65.1334 142.906 66.294C142.742 66.609 142.591 66.924 142.427 67.239C142.144 67.8376 141.876 68.4582 141.63 69.104C140.959 70.8651 140.488 72.6965 140.228 74.5634C140.131 75.2281 140.061 75.9148 140.02 76.6173C139.863 79.4858 140.125 82.3619 140.799 85.1545L127.252 91.162C125.52 86.43 124.688 81.4158 124.798 76.3779C124.798 75.6912 124.843 74.9887 124.896 74.2767C125.116 71.2363 125.738 68.2385 126.745 65.3615C126.988 64.6811 127.252 63.9974 127.552 63.3138C127.961 62.3688 128.427 61.4079 128.954 60.4597C129.787 58.9657 130.735 57.5385 131.789 56.1911L131.918 56.0305C132.388 55.4319 132.889 54.8386 133.421 54.2506C136.052 51.3777 139.078 48.8936 142.408 46.8727L152.287 55.9391Z" fill="white"/>
<path d="M126.758 92.4349L126.389 91.5402C124.601 86.6891 123.746 81.5436 123.869 76.3749C123.869 75.6535 123.916 74.9289 123.97 74.2201C124.193 71.1518 124.814 68.1253 125.816 65.2167L125.869 65.0592C126.144 64.2937 126.414 63.6038 126.701 62.9517C127.13 61.9593 127.615 60.9702 128.144 60.0156C128.998 58.4805 129.969 57.0134 131.048 55.6273L131.19 55.4509C131.653 54.8587 132.173 54.2444 132.724 53.6332C135.416 50.6915 138.511 48.146 141.917 46.0726L142.525 45.6978L153.866 56.0936L152.773 56.7425C150.592 58.1739 148.638 59.9239 146.976 61.9341C146.608 62.372 146.271 62.791 145.959 63.21V63.232L145.729 63.525C144.991 64.5415 144.327 65.6101 143.744 66.7225C143.58 67.0375 143.429 67.3526 143.281 67.6487C142.997 68.2504 142.739 68.8552 142.512 69.4475C141.867 71.143 141.415 72.9056 141.164 74.7021C141.069 75.3321 141.003 76.0032 140.965 76.6773C140.813 79.4557 141.067 82.2415 141.718 84.9467L141.898 85.7059L126.758 92.4349ZM127.678 65.5979L127.646 65.6924C126.668 68.4937 126.063 71.4118 125.847 74.3713C125.797 75.0423 125.766 75.7322 125.753 76.419C125.674 80.9997 126.367 85.561 127.804 89.9115L139.705 84.6254C139.137 81.9847 138.925 79.2798 139.075 76.5828C139.116 75.8551 139.189 75.1368 139.29 74.4469C139.559 72.508 140.048 70.6057 140.745 68.7765C140.988 68.1464 141.265 67.4912 141.57 66.8454C141.725 66.5303 141.885 66.1775 142.065 65.8467C142.695 64.648 143.411 63.4962 144.207 62.4004L144.245 62.35C144.639 61.8081 145.058 61.2726 145.527 60.7181C147.066 58.8782 148.825 57.2332 150.763 55.8195L142.301 48.0636C139.278 49.9624 136.523 52.2584 134.111 54.8902C133.588 55.4698 133.096 56.0495 132.649 56.6197L132.526 56.7709C131.504 58.0834 130.585 59.4726 129.776 60.9261C129.276 61.8252 128.823 62.7494 128.418 63.6951C128.169 64.2905 127.927 64.9206 127.678 65.5979Z" fill="#4F3CC9"/>
<path d="M207.146 75.3668L192.39 74.1288C192.108 71.2338 191.397 68.3969 190.279 65.7113C190.021 65.0812 189.738 64.4827 189.442 63.9062C188.636 62.3388 187.668 60.8605 186.553 59.4959C186.133 58.9708 185.693 58.4731 185.233 58.0026C184.104 56.8208 182.869 55.7452 181.544 54.7894C180.98 54.383 180.422 54.0113 179.871 53.6679C177.427 52.1244 174.751 50.9822 171.945 50.2845L178.309 38.49C182.279 39.3414 186.101 40.7779 189.649 42.7523C190.38 43.1723 191.082 43.6049 191.754 44.0502C194.032 45.5592 196.11 47.3513 197.938 49.3835C198.438 49.9401 198.912 50.5061 199.362 51.0815C201.238 53.4926 202.787 56.1406 203.97 58.9572C204.244 59.6103 204.496 60.2561 204.727 60.8946C206.409 65.5308 207.229 70.4356 207.146 75.3668Z" fill="white"/>
<path d="M208.034 76.3906L191.533 75.0013L191.451 74.2232C191.177 71.4218 190.489 68.6765 189.41 66.0766C189.171 65.5001 188.909 64.9331 188.6 64.3346C187.825 62.8271 186.894 61.4049 185.822 60.0912C185.419 59.5903 184.993 59.1114 184.562 58.6547C183.472 57.5134 182.279 56.4747 180.999 55.5517C180.479 55.1768 179.934 54.8114 179.38 54.468C177.029 52.9856 174.458 51.8851 171.762 51.2075L170.521 50.9491L177.827 37.4031L178.523 37.5574C182.582 38.4346 186.489 39.9058 190.119 41.9237C190.887 42.3616 191.615 42.8089 192.283 43.2594C194.626 44.8127 196.764 46.6566 198.643 48.7471C199.16 49.3173 199.651 49.9064 200.108 50.4924C202.033 52.9716 203.621 55.6938 204.834 58.5885C205.114 59.2564 205.375 59.9242 205.609 60.5763C207.34 65.3275 208.179 70.358 208.082 75.414L208.034 76.3906ZM193.228 73.2403L206.226 74.3398C206.153 69.8671 205.351 65.4363 203.851 61.2221C203.627 60.5921 203.378 59.962 203.11 59.332C201.96 56.5915 200.454 54.0144 198.631 51.6674C198.199 51.113 197.733 50.5585 197.248 50.0198C195.473 48.0472 193.455 46.307 191.243 44.8408C190.613 44.4155 189.92 43.9903 189.196 43.5807C185.935 41.7671 182.435 40.4204 178.8 39.5799L173.35 49.6828C175.819 50.4375 178.179 51.5091 180.372 52.8708C180.964 53.2394 181.544 53.6269 182.098 54.0301C183.47 55.0213 184.748 56.1359 185.916 57.3599C186.389 57.8482 186.861 58.3743 187.287 58.9098C188.442 60.3263 189.446 61.8593 190.283 63.484C190.613 64.1298 190.913 64.7441 191.152 65.3741C192.203 67.8933 192.906 70.544 193.241 73.2529L193.228 73.2403Z" fill="#4F3CC9"/>
<path d="M204.021 69.9768C200.808 68.8931 196.038 68.0457 191.773 70.2918C191.773 70.2918 183.749 77.3641 183.658 80.3726C183.658 80.3726 184.086 84.6759 189.829 82.1525C189.829 82.1525 186.994 95.352 197.802 96.4168C197.802 96.4168 205.678 97.6769 207.656 87.6182C207.72 87.2966 207.75 86.9694 207.748 86.6416L207.773 75.244C207.781 74.083 207.423 72.949 206.749 72.0033C206.075 71.0577 205.121 70.3485 204.021 69.9768Z" fill="white"/>
<path d="M198.558 97.3681C198.269 97.3707 197.979 97.3549 197.692 97.3208C194.624 97.0058 192.27 95.7709 190.705 93.6224C188.336 90.3777 188.405 85.9232 188.654 83.5416C187 84.0142 185.627 83.9386 184.559 83.3148C182.92 82.3698 182.719 80.4985 182.709 80.4198V80.3599V80.2969C182.81 77.0584 189.753 70.7768 191.143 69.5514L191.228 69.4758L191.329 69.4222C195.881 67.0343 200.905 67.907 204.32 69.06C205.605 69.4927 206.721 70.3189 207.51 71.4216C208.299 72.5242 208.72 73.8472 208.715 75.2029L208.69 86.6005C208.691 86.9884 208.655 87.3756 208.582 87.7567C206.856 96.5112 200.871 97.3681 198.558 97.3681ZM191.136 80.5237L190.746 82.332C190.746 82.3918 189.432 88.6892 192.236 92.5262C193.474 94.221 195.386 95.207 197.887 95.4527H197.947C198.228 95.4937 204.938 96.3978 206.724 87.4039C206.775 87.1424 206.799 86.8764 206.796 86.61L206.821 75.2124C206.823 74.2538 206.524 73.3188 205.964 72.5402C205.405 71.7616 204.615 71.1788 203.706 70.8745C200.669 69.8475 196.233 69.0568 192.299 71.0667C189.149 73.8641 184.76 78.4887 184.593 80.3063C184.642 80.5919 184.749 80.8642 184.909 81.1061C185.068 81.3479 185.276 81.5541 185.519 81.7113C186.345 82.1839 187.699 82.0264 189.438 81.2672L191.136 80.5237Z" fill="#4F3CC9"/>
<path d="M204.73 60.9009C201.384 60.756 195.011 61.175 190.279 65.7113C190.021 65.0813 189.738 64.4827 189.442 63.9063C194.252 59.5873 200.278 58.9005 203.974 58.9635C204.249 59.6167 204.501 60.2625 204.73 60.9009ZM199.365 51.0816C196.41 51.3178 190.39 52.6725 186.553 59.4959C186.133 58.9709 185.693 58.4731 185.233 58.0027C186.58 55.7142 188.419 53.7538 190.617 52.2632C192.815 50.7725 195.316 49.789 197.941 49.3836C198.441 49.9422 198.915 50.5082 199.365 51.0816ZM191.757 44.0502C189.104 44.6803 183.251 46.9768 181.544 54.7894C180.98 54.383 180.422 54.0113 179.871 53.6679C181.645 46.8508 186.402 43.9589 189.637 42.7523C190.378 43.1682 191.085 43.6008 191.757 44.0502ZM140.225 74.5793C140.128 75.244 140.058 75.9307 140.017 76.6333C133.786 72.8876 127.416 75.1463 124.808 76.3938C124.808 75.7071 124.852 75.0046 124.906 74.2926C128.116 72.9569 134.161 71.3471 140.225 74.5793ZM142.424 67.255C142.141 67.8535 141.873 68.4741 141.627 69.1199C136.728 64.0543 129.656 64.8009 126.755 65.3743C126.997 64.6938 127.262 64.0102 127.561 63.3266C131.13 62.81 137.551 62.7154 142.424 67.255ZM146.248 61.3356C145.833 61.8271 145.417 62.35 145.01 62.9108C141.384 56.9001 134.87 56.0842 131.918 56.0432C132.388 55.4447 132.889 54.8514 133.421 54.2633C136.984 54.5973 142.689 56.0054 146.248 61.3356Z" fill="#F582AE"/>
<path d="M128.453 85.0632C131.134 82.9841 135.361 80.6182 140.124 81.3333C140.124 81.3333 150.022 85.3814 151.094 88.182C151.094 88.182 152.098 92.3876 145.848 91.8898C145.848 91.8898 152.864 103.423 142.994 107.978C142.994 107.978 135.988 111.758 130.796 102.9C130.634 102.616 130.498 102.317 130.39 102.008L126.629 91.2503C126.246 90.158 126.216 88.973 126.543 87.8628C126.871 86.7526 127.539 85.7733 128.453 85.0632Z" fill="white"/>
<path d="M139.381 109.705C136.64 109.705 132.989 108.514 129.981 103.376C129.786 103.04 129.625 102.687 129.499 102.32L125.737 91.5622C125.288 90.2831 125.253 88.8952 125.636 87.5948C126.019 86.2945 126.802 85.1476 127.873 84.3167C130.708 82.1115 135.185 79.6354 140.266 80.3978H140.376L140.484 80.4419C142.2 81.1444 150.819 84.7986 151.976 87.8292L152.013 87.9458C152.032 88.0214 152.448 89.8359 151.216 91.285C150.41 92.2301 149.137 92.7467 147.42 92.8601C148.435 95.0181 149.959 99.2016 148.788 103.045C148.013 105.59 146.198 107.537 143.401 108.832C142.14 109.41 140.768 109.708 139.381 109.705ZM129.045 85.8099C128.287 86.3981 127.733 87.2098 127.461 88.1302C127.19 89.0506 127.215 90.0331 127.533 90.9385L131.297 101.697C131.38 101.947 131.485 102.19 131.612 102.421C136.256 110.347 142.295 107.279 142.55 107.147L142.591 107.134C144.888 106.075 146.371 104.519 146.973 102.509C148.365 97.951 145.067 92.4506 145.032 92.3971L144.087 90.8219L145.93 90.97C147.82 91.1212 149.153 90.8219 149.78 90.1068C149.958 89.8781 150.086 89.615 150.157 89.3341C150.228 89.0533 150.24 88.7608 150.193 88.475C149.433 86.8085 143.782 83.8788 139.885 82.2722C135.506 81.661 131.578 83.8662 129.042 85.8319L129.045 85.8099ZM176.056 21.3148L179.326 20.6848C179.74 20.6043 180.165 20.6061 180.578 20.6902C180.991 20.7743 181.383 20.939 181.732 21.1748C182.081 21.4107 182.38 21.713 182.612 22.0646C182.844 22.4163 183.005 22.8102 183.084 23.2239L184.533 30.7152C184.694 31.5502 184.517 32.415 184.04 33.1191C183.563 33.8233 182.826 34.3093 181.991 34.4703L178.721 35.1003L176.056 21.3148ZM133.95 29.4488L130.68 30.0788C130.266 30.1588 129.873 30.3195 129.521 30.5517C129.17 30.7839 128.868 31.083 128.632 31.432C128.396 31.781 128.231 32.173 128.147 32.5857C128.063 32.9984 128.061 33.4236 128.141 33.8371L129.587 41.3252C129.748 42.1605 130.235 42.8974 130.94 43.3741C131.644 43.8508 132.51 44.0282 133.345 43.8675L136.615 43.2374L133.95 29.4488Z" fill="#4F3CC9"/>
<path d="M156.43 56.7644C169.888 56.7644 180.797 45.8548 180.797 32.3972C180.797 18.9396 169.888 8.03003 156.43 8.03003C142.972 8.03003 132.063 18.9396 132.063 32.3972C132.063 45.8548 142.972 56.7644 156.43 56.7644Z" fill="white"/>
<path d="M156.377 57.7191C149.862 57.7196 143.597 55.2132 138.881 50.7194C134.165 46.2256 131.359 40.0892 131.044 33.5823C130.73 27.0755 132.932 20.6973 137.194 15.7701C141.455 10.843 147.45 7.74474 153.934 7.11778C160.418 6.49082 166.895 8.38323 172.021 12.4027C177.148 16.4221 180.531 22.2602 181.469 28.7067C182.408 35.1532 180.829 41.7136 177.061 47.0277C173.293 52.3418 167.625 56.0021 161.231 57.2497C159.631 57.5602 158.006 57.7173 156.377 57.7191ZM156.477 8.96898C153.022 8.96684 149.608 9.72845 146.481 11.1993C143.354 12.6702 140.591 14.8139 138.389 17.4772C136.187 20.1406 134.601 23.2576 133.745 26.6053C132.888 29.9531 132.781 33.4488 133.433 36.8424C134.278 41.1992 136.344 45.2262 139.389 48.4542C142.435 51.6822 146.335 53.9782 150.636 55.0746C154.936 56.1711 159.46 56.0229 163.679 54.6472C167.898 53.2716 171.64 50.7252 174.468 47.3048C177.296 43.8844 179.093 39.7308 179.651 35.328C180.209 30.9252 179.504 26.4546 177.619 22.437C175.733 18.4194 172.745 15.0203 169.002 12.6358C165.259 10.2514 160.915 8.97968 156.477 8.96898Z" fill="#4F3CC9"/>
<path d="M161.728 16.8185L145.857 19.8861C140.367 20.9473 136.777 26.2583 137.838 31.7485L139.39 39.7779C140.451 45.2681 145.762 48.8585 151.253 47.7973L167.123 44.7297C172.613 43.6685 176.203 38.3575 175.142 32.8673L173.59 24.8379C172.529 19.3477 167.218 15.7573 161.728 16.8185Z" fill="#4F3CC9"/>
<path d="M168.685 29.9842C169.996 29.9842 171.06 28.9208 171.06 27.6089C171.06 26.2971 169.996 25.2336 168.685 25.2336C167.373 25.2336 166.309 26.2971 166.309 27.6089C166.309 28.9208 167.373 29.9842 168.685 29.9842Z" fill="white"/>
<path d="M165.011 25.032C165.867 25.032 166.561 24.338 166.561 23.482C166.561 22.626 165.867 21.9321 165.011 21.9321C164.155 21.9321 163.461 22.626 163.461 23.482C163.461 24.338 164.155 25.032 165.011 25.032Z" fill="white"/>
<path d="M195.963 128.398C190.749 128.845 186.143 125.767 185.063 121.354C184.589 119.416 184.824 117.372 185.724 115.592C187.227 112.577 190.465 110.341 194.381 110.004C198.08 109.689 201.472 111.144 203.517 113.592C203.915 114.069 204.263 114.586 204.553 115.135C205.079 116.12 205.401 117.202 205.498 118.314C205.927 123.392 201.658 127.906 195.963 128.398Z" fill="white"/>
<path d="M194.98 129.384C189.823 129.384 185.267 126.168 184.146 121.578C184.032 121.115 183.954 120.644 183.913 120.17C183.771 118.446 184.104 116.717 184.877 115.17C186.581 111.755 190.191 109.415 194.299 109.062C198.199 108.728 201.913 110.196 204.238 112.987C204.68 113.514 205.064 114.087 205.385 114.695C205.969 115.791 206.325 116.994 206.431 118.232C206.913 123.821 202.254 128.805 196.035 129.34C195.685 129.372 195.329 129.384 194.98 129.384ZM195.389 110.914C195.074 110.914 194.759 110.914 194.444 110.955C190.979 111.251 187.964 113.195 186.568 116.024C185.771 117.604 185.562 119.417 185.979 121.137C186.962 125.147 191.218 127.866 195.881 127.466C201.053 127.018 204.941 122.955 204.547 118.406C204.464 117.414 204.181 116.45 203.715 115.57C203.456 115.079 203.145 114.617 202.789 114.191C201.041 112.102 198.322 110.914 195.389 110.914Z" fill="#4F3CC9"/>
<path d="M236.853 120.68C234.106 153.443 205.312 177.785 172.547 175.034C161.733 174.145 151.371 170.304 142.591 163.93C168.423 172.029 227.648 167.304 236.349 106.438C237.086 111.148 237.255 115.93 236.853 120.68ZM203.514 113.592C193.956 113.034 188.188 117.546 185.063 121.354C184.59 119.416 184.824 117.373 185.724 115.592C187.227 112.578 190.465 110.341 194.381 110.004C198.08 109.689 201.472 111.144 203.514 113.592Z" fill="#4F3CC9"/>
<path d="M168.669 88.0843C164.718 88.4246 161.231 86.0934 160.412 82.751C160.054 81.2823 160.231 79.7341 160.913 78.3847C162.053 76.1039 164.504 74.4091 167.472 74.1539C170.272 73.9145 172.827 75.0171 174.386 76.8694C174.689 77.2315 174.953 77.6243 175.174 78.0413C175.57 78.7875 175.811 79.6062 175.883 80.4481C176.217 84.2946 172.981 87.7126 168.669 88.0843Z" fill="white"/>
<path d="M167.925 89.0609C163.915 89.0609 160.365 86.5407 159.495 82.9746C159.081 81.2902 159.284 79.5129 160.069 77.9657C161.392 75.3069 164.199 73.4861 167.39 73.212C170.417 72.9537 173.303 74.0941 175.114 76.2646C175.458 76.6764 175.758 77.123 176.009 77.5971C176.466 78.4553 176.743 79.3974 176.825 80.3662C177.203 84.7261 173.58 88.6104 168.751 89.0262C168.473 89.0514 168.196 89.0609 167.925 89.0609ZM168.24 75.0643C168.014 75.0643 167.787 75.0643 167.557 75.0958C165.018 75.3132 162.8 76.7371 161.767 78.8068C161.315 79.7048 161.12 80.7097 161.203 81.7113C161.227 81.9854 161.272 82.2571 161.338 82.5241C162.053 85.4507 165.172 87.4385 168.584 87.1424C172.364 86.8274 175.224 83.8504 174.938 80.5269C174.877 79.8103 174.672 79.1135 174.333 78.4792C174.146 78.1204 173.92 77.7834 173.659 77.4743C172.986 76.7001 172.151 76.0831 171.214 75.6667C170.277 75.2503 169.26 75.0447 168.234 75.0643H168.24Z" fill="#4F3CC9"/>
<path d="M174.386 76.8694C167.141 76.4473 162.781 79.8653 160.412 82.751C160.054 81.2823 160.231 79.7341 160.913 78.3847C162.053 76.1039 164.504 74.4091 167.472 74.1539C170.272 73.9145 172.833 75.0171 174.386 76.8694Z" fill="#4F3CC9"/>
<path d="M188.704 153.758C186.748 153.925 185.019 152.772 184.609 151.115C184.571 150.958 184.545 150.799 184.53 150.639C184.477 150.059 184.587 149.475 184.845 148.954C185.166 148.381 185.618 147.892 186.165 147.529C186.711 147.166 187.337 146.938 187.989 146.865C188.641 146.792 189.301 146.875 189.915 147.108C190.529 147.341 191.078 147.716 191.518 148.204C191.938 148.705 192.196 149.323 192.258 149.974C192.441 151.867 190.84 153.556 188.704 153.758Z" fill="white"/>
<path d="M188.336 154.703C186.131 154.703 184.184 153.31 183.695 151.322C183.646 151.115 183.612 150.905 183.595 150.692C183.532 149.938 183.678 149.18 184.017 148.503C184.407 147.789 184.963 147.18 185.637 146.726C186.312 146.272 187.086 145.987 187.894 145.894C188.702 145.802 189.52 145.904 190.28 146.194C191.04 146.483 191.719 146.951 192.261 147.558C192.453 147.787 192.621 148.035 192.762 148.298C193.016 148.78 193.171 149.308 193.219 149.851C193.427 152.274 191.439 154.429 188.786 154.658C188.635 154.703 188.484 154.703 188.336 154.703ZM188.478 147.772C188.383 147.772 188.285 147.772 188.191 147.772C187.678 147.803 187.18 147.963 186.746 148.239C186.312 148.514 185.955 148.896 185.708 149.347C185.523 149.713 185.444 150.123 185.479 150.532C185.489 150.638 185.506 150.743 185.532 150.847C185.847 152.072 187.161 152.897 188.622 152.775C190.239 152.636 191.458 151.398 191.335 150.015C191.31 149.724 191.226 149.441 191.089 149.183C191.011 149.036 190.918 148.896 190.812 148.767C190.517 148.444 190.156 148.188 189.753 148.016C189.35 147.844 188.915 147.761 188.478 147.772Z" fill="#4F3CC9"/>
<path d="M191.536 148.188C187.951 147.977 185.787 149.672 184.606 151.099C184.568 150.942 184.542 150.784 184.527 150.623C184.474 150.043 184.583 149.46 184.842 148.938C185.162 148.365 185.615 147.877 186.161 147.514C186.708 147.15 187.333 146.923 187.986 146.849C188.638 146.776 189.298 146.859 189.912 147.092C190.526 147.325 191.075 147.701 191.514 148.188H191.536Z" fill="#4F3CC9"/>
<path d="M149.355 148.053C145.354 148.396 141.819 146.036 140.991 142.647C140.911 142.328 140.858 142.004 140.83 141.677C140.727 140.482 140.958 139.282 141.498 138.211C142.651 135.899 145.136 134.182 148.142 133.924C150.977 133.681 153.585 134.8 155.151 136.677C155.457 137.043 155.724 137.44 155.948 137.862C156.349 138.619 156.593 139.449 156.666 140.303C157.003 144.212 153.727 147.678 149.355 148.053Z" fill="white"/>
<path d="M148.602 149.032C144.544 149.032 140.959 146.493 140.071 142.874C139.982 142.507 139.921 142.134 139.888 141.758C139.774 140.396 140.038 139.028 140.65 137.805C141.992 135.115 144.831 133.272 148.06 132.994C151.125 132.73 154.045 133.889 155.876 136.085C156.224 136.501 156.528 136.953 156.783 137.433C157.243 138.302 157.524 139.254 157.608 140.234C157.989 144.644 154.323 148.576 149.437 148.995C149.156 149.032 148.892 149.032 148.602 149.032ZM148.917 134.856C148.69 134.856 148.457 134.856 148.224 134.888C145.647 135.108 143.394 136.554 142.345 138.668C141.889 139.58 141.691 140.6 141.775 141.617C141.799 141.896 141.844 142.173 141.911 142.445C142.638 145.416 145.804 147.432 149.276 147.136C153.125 146.802 156.021 143.79 155.728 140.416C155.661 139.688 155.447 138.98 155.098 138.337C154.906 137.974 154.677 137.632 154.414 137.317C153.733 136.529 152.887 135.901 151.937 135.476C150.986 135.051 149.954 134.839 148.914 134.856H148.917Z" fill="#4F3CC9"/>
<path d="M155.151 136.69C147.814 136.261 143.388 139.723 140.991 142.647C140.911 142.328 140.858 142.004 140.83 141.676C140.727 140.482 140.958 139.282 141.498 138.211C142.651 135.899 145.136 134.182 148.142 133.924C150.98 133.694 153.585 134.812 155.151 136.69Z" fill="#4F3CC9"/>
<path d="M156.969 109.89C154.672 110.089 152.643 108.734 152.168 106.787C152.123 106.604 152.092 106.418 152.076 106.23C152.019 105.548 152.151 104.863 152.458 104.251C152.834 103.579 153.366 103.006 154.008 102.579C154.65 102.153 155.384 101.886 156.15 101.799C156.916 101.713 157.692 101.811 158.412 102.084C159.133 102.357 159.779 102.797 160.295 103.369C160.47 103.58 160.622 103.808 160.749 104.05C160.98 104.483 161.122 104.959 161.165 105.449C161.357 107.685 159.476 109.676 156.969 109.89Z" fill="white"/>
<path d="M156.534 110.854C154.014 110.854 151.809 109.279 151.248 107.014C150.989 105.943 151.119 104.814 151.613 103.829C152.061 103.017 152.696 102.324 153.467 101.808C154.237 101.292 155.12 100.968 156.041 100.864C156.963 100.76 157.896 100.878 158.762 101.208C159.628 101.539 160.402 102.073 161.02 102.764C161.238 103.025 161.428 103.308 161.587 103.609C161.882 104.154 162.064 104.753 162.123 105.37C162.359 108.12 160.091 110.571 157.063 110.832C156.877 110.848 156.704 110.854 156.534 110.854ZM156.714 102.714C156.594 102.714 156.474 102.714 156.351 102.714C155.72 102.753 155.11 102.951 154.577 103.292C154.044 103.632 153.606 104.102 153.305 104.658C153.072 105.113 152.973 105.626 153.018 106.135C153.029 106.274 153.051 106.412 153.084 106.548C153.456 108.063 155.091 109.087 156.887 108.933C158.875 108.762 160.371 107.228 160.223 105.515C160.189 105.15 160.082 104.797 159.908 104.475C159.81 104.292 159.694 104.12 159.561 103.961C159.206 103.56 158.766 103.241 158.274 103.028C157.782 102.814 157.25 102.71 156.714 102.723V102.714Z" fill="#4F3CC9"/>
<path d="M160.295 103.369C156.084 103.124 153.544 105.111 152.168 106.787C152.123 106.604 152.092 106.418 152.076 106.23C152.019 105.548 152.151 104.863 152.458 104.251C152.834 103.579 153.366 103.006 154.008 102.579C154.65 102.153 155.384 101.886 156.15 101.799C156.916 101.713 157.692 101.811 158.412 102.084C159.133 102.357 159.779 102.797 160.295 103.369Z" fill="#4F3CC9"/>
<path d="M213.349 103.281C211.5 103.439 209.865 102.336 209.48 100.78C209.315 100.092 209.398 99.3674 209.717 98.7354C210.02 98.196 210.448 97.7366 210.964 97.3948C211.48 97.053 212.07 96.8387 212.685 96.7695C213.301 96.7003 213.923 96.7782 214.503 96.9967C215.082 97.2153 215.601 97.5682 216.017 98.0266C216.158 98.1961 216.282 98.3798 216.386 98.5747C216.572 98.9242 216.686 99.3078 216.72 99.7025C216.883 101.504 215.362 103.105 213.349 103.281Z" fill="white"/>
<path d="M212.999 104.239C210.895 104.239 209.03 102.906 208.564 101.003C208.345 100.099 208.456 99.1457 208.879 98.3163C209.253 97.6358 209.784 97.055 210.429 96.6226C211.074 96.1901 211.813 95.9187 212.585 95.8311C213.356 95.7434 214.138 95.8421 214.863 96.1189C215.589 96.3956 216.237 96.8424 216.754 97.4216C216.938 97.6401 217.097 97.8778 217.23 98.1304C217.475 98.5926 217.625 99.0993 217.671 99.6205C217.869 101.939 215.967 104.002 213.431 104.22C213.286 104.232 213.157 104.239 212.999 104.239ZM213.135 97.6831C213.045 97.6783 212.956 97.6783 212.867 97.6831C212.39 97.7106 211.928 97.8593 211.524 98.115C211.121 98.3708 210.789 98.7252 210.561 99.1448C210.389 99.482 210.316 99.8609 210.35 100.238C210.358 100.344 210.374 100.449 210.397 100.553C210.677 101.687 211.909 102.443 213.267 102.339C214.766 102.21 215.897 101.079 215.787 99.7843C215.764 99.5154 215.687 99.254 215.56 99.0156C215.487 98.8795 215.4 98.7508 215.302 98.6313C215.03 98.3265 214.696 98.084 214.322 97.9203C213.948 97.7567 213.543 97.6757 213.135 97.6831Z" fill="#4F3CC9"/>
<path d="M216.026 98.0266C212.637 97.8281 210.589 99.4284 209.48 100.78C209.315 100.092 209.398 99.3674 209.717 98.7354C210.02 98.196 210.448 97.7366 210.964 97.3948C211.48 97.053 212.07 96.8387 212.685 96.7695C213.301 96.7003 213.923 96.7782 214.503 96.9967C215.082 97.2153 215.601 97.5682 216.017 98.0266H216.026Z" fill="#4F3CC9"/>
<path d="M257.701 78.2996C258.243 77.3524 259.174 76.6919 260.495 76.3181C262.19 75.9031 263.933 75.7156 265.678 75.7605C267.809 75.7605 269.519 75.98 270.806 76.4189C272.094 76.8579 273.008 77.5698 273.55 78.5548C274.038 79.3826 274.366 80.2955 274.514 81.2451C274.635 82.4266 274.687 83.6142 274.668 84.8017V141.289C274.668 143.929 274.346 145.876 273.701 147.129C273.41 147.726 272.998 148.256 272.491 148.685C271.984 149.113 271.393 149.431 270.756 149.618C269.152 150.062 267.492 150.268 265.829 150.229C263.863 150.229 262.306 150.059 261.157 149.719C260.209 149.478 259.313 149.065 258.514 148.5C257.872 147.977 257.411 147.267 257.194 146.468C256.789 145.317 256.585 143.556 256.583 141.185V128.792H229.053C224.311 128.792 221.5 127.505 220.62 124.933C220.238 123.509 220.067 122.037 220.112 120.563C220.077 119.202 220.183 117.84 220.427 116.5L228.861 82.4768C229.268 80.9206 229.624 79.7351 229.929 78.9202C230.315 77.9919 230.941 77.183 231.743 76.5764C232.743 75.8012 233.985 75.405 235.249 75.4581C236.836 75.4792 238.412 75.7177 239.934 76.1669C244.674 77.4522 247.045 79.6196 247.047 82.669C246.988 84.115 246.749 85.5479 246.335 86.9345C246.279 87.0308 246.244 87.1383 246.234 87.2495L240.038 112.039H256.595V84.3166C256.574 83.1594 256.626 82.002 256.75 80.8513C256.903 79.9483 257.226 79.0824 257.701 78.2996Z" fill="#77E0B5"/>
<path d="M265.829 151.174C263.75 151.174 262.134 150.995 260.889 150.626C259.827 150.354 258.825 149.886 257.934 149.246C257.143 148.61 256.57 147.742 256.296 146.764C255.855 145.504 255.638 143.677 255.638 141.185V129.737H229.053C223.883 129.737 220.746 128.222 219.725 125.235C219.347 124.032 219.167 122.51 219.167 120.563C219.122 119.13 219.228 117.696 219.482 116.285L227.931 82.2469C228.353 80.6277 228.713 79.4369 229.031 78.5863C229.482 77.5025 230.212 76.5578 231.148 75.8487C232.314 74.9384 233.764 74.4678 235.243 74.5193C236.911 74.545 238.569 74.7962 240.17 75.266C245.346 76.671 247.973 79.166 247.973 82.6785C247.918 84.2077 247.668 85.7236 247.23 87.1896L247.205 87.281L247.16 87.3661L247.135 87.47L241.232 111.097H255.635V84.3198C255.614 83.1237 255.668 81.9274 255.795 80.7379C255.968 79.7099 256.337 78.7248 256.882 77.8365C257.547 76.671 258.678 75.855 260.237 75.414C262.016 74.9771 263.846 74.7779 265.678 74.8218C267.902 74.8218 269.732 75.0612 271.112 75.5306C272.621 76.0504 273.72 76.9135 274.379 78.1012C274.923 79.0363 275.288 80.0653 275.453 81.1349C275.578 82.3551 275.631 83.5816 275.613 84.8081V141.289C275.613 144.124 275.264 146.159 274.542 147.561C274.194 148.271 273.703 148.9 273.099 149.41C272.494 149.92 271.791 150.299 271.033 150.522C269.339 150.993 267.586 151.212 265.829 151.174ZM235.249 76.4C234.203 76.3467 233.173 76.6671 232.342 77.3042C231.668 77.8047 231.137 78.4726 230.801 79.2416C230.508 80.0165 230.171 81.1821 229.762 82.7068L221.347 116.726C221.126 117.993 221.033 119.278 221.07 120.563C221.025 121.944 221.181 123.323 221.533 124.659C222.258 126.773 224.794 127.856 229.065 127.856H257.54V141.194C257.54 143.447 257.729 145.12 258.098 146.165V146.203C258.253 146.821 258.602 147.374 259.094 147.778C259.799 148.271 260.587 148.631 261.422 148.84C262.477 149.155 263.961 149.309 265.832 149.309C267.406 149.341 268.975 149.141 270.491 148.717C271.008 148.567 271.487 148.31 271.898 147.963C272.309 147.615 272.642 147.185 272.876 146.701C273.446 145.589 273.736 143.768 273.736 141.292V84.8017C273.752 83.6532 273.704 82.5048 273.591 81.3617C273.453 80.5313 273.162 79.7335 272.734 79.0084C272.306 78.2335 271.578 77.679 270.513 77.3136C269.329 76.9104 267.706 76.7056 265.69 76.7056C264.032 76.663 262.375 76.8388 260.763 77.2286C259.683 77.5436 258.952 78.0382 258.536 78.769C258.12 79.4453 257.832 80.1931 257.689 80.9742C257.573 82.0792 257.525 83.1901 257.544 84.3009V112.968H238.812L245.289 87.0794C245.316 86.916 245.365 86.7571 245.434 86.6069C245.815 85.3263 246.036 84.0037 246.092 82.669C246.092 80.0795 243.994 78.2587 239.679 77.0773C238.239 76.653 236.749 76.4252 235.249 76.4Z" fill="#4F3CC9"/>
<path d="M105.544 78.2996C106.086 77.3524 107.017 76.6919 108.338 76.3181C110.033 75.9031 111.776 75.7156 113.52 75.7605C115.652 75.7605 117.362 75.98 118.649 76.4189C119.937 76.8579 120.851 77.5698 121.393 78.5548C121.881 79.3826 122.209 80.2955 122.357 81.2451C122.478 82.4266 122.53 83.6142 122.511 84.8017V141.289C122.511 143.929 122.189 145.876 121.544 147.129C121.253 147.726 120.841 148.256 120.334 148.685C119.827 149.113 119.236 149.431 118.599 149.618C116.995 150.062 115.335 150.268 113.672 150.229C111.706 150.229 110.149 150.059 109 149.719C108.052 149.478 107.156 149.065 106.357 148.5C105.715 147.977 105.254 147.267 105.037 146.468C104.629 145.317 104.426 143.556 104.426 141.185V128.792H76.8957C72.1556 128.792 69.3446 127.505 68.4625 124.933C68.0809 123.509 67.91 122.037 67.9553 120.563C67.9204 119.202 68.026 117.84 68.2703 116.5L76.7035 82.4768C77.111 80.9206 77.4669 79.7351 77.7715 78.9202C78.1578 77.9919 78.7841 77.183 79.586 76.5764C80.5859 75.8012 81.8281 75.405 83.0922 75.4581C84.6788 75.4792 86.2549 75.7177 87.7767 76.1669C92.5167 77.4522 94.8878 79.6196 94.8899 82.669C94.8314 84.115 94.5922 85.5479 94.178 86.9345C94.1216 87.0308 94.0872 87.1383 94.0772 87.2495L87.8806 112.039H104.438V84.3166C104.417 83.1594 104.469 82.002 104.593 80.8513C104.746 79.9483 105.069 79.0824 105.544 78.2996Z" fill="#77E0B5"/>
<path d="M113.672 151.174C111.593 151.174 109.976 150.995 108.732 150.626C107.67 150.354 106.668 149.886 105.777 149.246C104.986 148.61 104.413 147.742 104.139 146.764C103.698 145.504 103.481 143.677 103.481 141.185V129.737H76.8957C71.7261 129.737 68.5885 128.222 67.5678 125.235C67.1898 124.032 67.0102 122.51 67.0102 120.563C66.9649 119.13 67.0705 117.696 67.3252 116.285L75.7742 82.2469C76.1963 80.6277 76.5555 79.4369 76.8737 78.5863C77.3246 77.5025 78.0551 76.5578 78.9906 75.8487C80.1573 74.9384 81.6071 74.4678 83.0859 74.5193C84.7544 74.545 86.4118 74.7962 88.0129 75.266C93.1888 76.671 95.8161 79.166 95.8161 82.6785C95.7608 84.2077 95.5109 85.7236 95.0726 87.1896L95.0474 87.281L95.0033 87.3661L94.9781 87.47L89.0746 111.097H103.478V84.3198C103.457 83.1237 103.511 81.9274 103.638 80.7379C103.811 79.7099 104.18 78.7248 104.725 77.8365C105.39 76.671 106.521 75.855 108.08 75.414C109.859 74.9771 111.689 74.7779 113.521 74.8218C115.745 74.8218 117.575 75.0612 118.955 75.5306C120.464 76.0504 121.563 76.9135 122.221 78.1012C122.766 79.0363 123.131 80.0653 123.296 81.1349C123.421 82.3551 123.474 83.5816 123.456 84.8081V141.289C123.456 144.124 123.107 146.159 122.385 147.561C122.037 148.271 121.546 148.9 120.941 149.41C120.337 149.92 119.634 150.299 118.876 150.522C117.182 150.993 115.429 151.212 113.672 151.174ZM83.0922 76.4C82.0464 76.3467 81.0157 76.6671 80.1846 77.3042C79.5111 77.8047 78.9801 78.4726 78.6441 79.2416C78.3511 80.0165 78.014 81.1821 77.6045 82.7068L69.1902 116.726C68.9685 117.993 68.8756 119.278 68.913 120.563C68.8684 121.944 69.0243 123.323 69.3761 124.659C70.1006 126.773 72.6366 127.856 76.9083 127.856H105.383V141.194C105.383 143.447 105.572 145.12 105.941 146.165V146.203C106.096 146.821 106.444 147.374 106.936 147.778C107.642 148.271 108.43 148.631 109.265 148.84C110.32 149.155 111.804 149.309 113.675 149.309C115.249 149.341 116.818 149.141 118.334 148.717C118.851 148.567 119.33 148.31 119.741 147.963C120.152 147.615 120.485 147.185 120.719 146.701C121.289 145.589 121.579 143.768 121.579 141.292V84.8017C121.595 83.6532 121.547 82.5048 121.434 81.3617C121.295 80.5313 121.005 79.7335 120.577 79.0084C120.149 78.2335 119.421 77.679 118.356 77.3136C117.172 76.9104 115.549 76.7056 113.533 76.7056C111.875 76.663 110.218 76.8388 108.606 77.2286C107.526 77.5436 106.795 78.0382 106.379 78.769C105.962 79.4453 105.675 80.1931 105.531 80.9742C105.416 82.0792 105.368 83.1901 105.387 84.3009V112.968H86.6552L93.1321 87.0794C93.1587 86.916 93.2075 86.7571 93.277 86.6069C93.6576 85.3263 93.8787 84.0037 93.9354 82.669C93.9354 80.0795 91.8373 78.2587 87.5215 77.0773C86.0824 76.653 84.5924 76.4252 83.0922 76.4Z" fill="#4F3CC9"/>
</svg>
