<svg width="123" height="50" viewBox="0 0 123 50" fill="none" xmlns="http://www.w3.org/2000/svg">
<g clip-path="url(#clip0_144_651)">
<g filter="url(#filter0_b_144_651)">
<rect width="28.4611" height="28.4611" rx="5.22876" transform="matrix(0.965916 -0.258855 -0.258855 0.965916 18.4239 18.4206)" fill="#772BFB" fill-opacity="0.8"/>
<rect width="28.4611" height="28.4611" rx="5.22876" transform="matrix(0.965916 -0.258855 -0.258855 0.965916 11.4525 11.4489)" fill="#FF2798" fill-opacity="0.8"/>
</g>
<path d="M52.9004 33.166C52.9004 32.9772 52.9492 32.7201 53.0469 32.3945C53.151 32.0625 53.2812 31.7109 53.4375 31.3398C53.5938 30.9622 53.763 30.5846 53.9453 30.207C54.1276 29.8294 54.3001 29.5007 54.4629 29.2207C54.5736 29.0384 54.6712 28.8691 54.7559 28.7129C54.8405 28.5566 54.8828 28.4329 54.8828 28.3418C54.8828 28.2311 54.8535 28.1074 54.7949 27.9707C54.7428 27.834 54.6908 27.7233 54.6387 27.6387C54.541 27.4759 54.3717 27.2318 54.1309 26.9062C53.8965 26.5807 53.6263 26.2096 53.3203 25.793C53.0208 25.3763 52.7083 24.9368 52.3828 24.4746C52.0573 24.0059 51.7578 23.5534 51.4844 23.1172C51.2174 22.681 50.9961 22.2806 50.8203 21.916C50.651 21.5449 50.5664 21.2487 50.5664 21.0273C50.5664 20.9297 50.5859 20.8385 50.625 20.7539C50.6706 20.6628 50.7259 20.5846 50.791 20.5195C50.8626 20.4479 50.944 20.3926 51.0352 20.3535C51.1263 20.3145 51.2174 20.2949 51.3086 20.2949C51.4909 20.2949 51.6341 20.3242 51.7383 20.3828C51.8424 20.4349 51.9499 20.5521 52.0605 20.7344C52.1322 20.8581 52.2624 21.0664 52.4512 21.3594C52.64 21.6458 52.8581 21.9779 53.1055 22.3555C53.3529 22.7266 53.6165 23.1237 53.8965 23.5469C54.1829 23.9701 54.4596 24.377 54.7266 24.7676C55 25.1517 55.2474 25.5 55.4688 25.8125C55.6966 26.1185 55.8789 26.3464 56.0156 26.4961C56.0482 26.4505 56.0872 26.3952 56.1328 26.3301C56.1849 26.2585 56.2337 26.1868 56.2793 26.1152C56.3249 26.0436 56.3672 25.9785 56.4062 25.9199C56.4453 25.8613 56.4746 25.8158 56.4941 25.7832C56.735 25.3665 56.9954 24.9043 57.2754 24.3965C57.5553 23.8887 57.8385 23.3874 58.125 22.8926C58.4115 22.3913 58.6914 21.9225 58.9648 21.4863C59.2383 21.0501 59.4889 20.6921 59.7168 20.4121C59.8275 20.2754 59.9284 20.1517 60.0195 20.041C60.1172 19.9303 60.2116 19.8359 60.3027 19.7578C60.4004 19.6797 60.5013 19.6211 60.6055 19.582C60.7096 19.5365 60.8268 19.5137 60.957 19.5137C61.1458 19.5137 61.3021 19.582 61.4258 19.7188C61.5495 19.849 61.6113 20.0052 61.6113 20.1875C61.6113 20.2201 61.6016 20.2591 61.582 20.3047C61.569 20.3438 61.5299 20.4251 61.4648 20.5488C61.3997 20.6725 61.3021 20.8483 61.1719 21.0762C61.0482 21.2975 60.8757 21.6035 60.6543 21.9941C60.3548 22.502 60.0326 23.0553 59.6875 23.6543C59.349 24.2467 59.0007 24.8652 58.6426 25.5098C58.2845 26.1543 57.9264 26.8151 57.5684 27.4922C57.2103 28.1628 56.8652 28.8301 56.5332 29.4941C56.2012 30.1582 55.8887 30.8125 55.5957 31.457C55.3027 32.0951 55.0456 32.7005 54.8242 33.2734C54.8047 33.3255 54.7721 33.3971 54.7266 33.4883C54.681 33.5794 54.6257 33.6673 54.5605 33.752C54.4954 33.8431 54.4206 33.9212 54.3359 33.9863C54.2513 34.0514 54.1634 34.084 54.0723 34.084C54.0007 34.084 53.8997 34.0579 53.7695 34.0059C53.6393 33.9538 53.5091 33.8822 53.3789 33.791C53.2487 33.7064 53.1348 33.6087 53.0371 33.498C52.946 33.3874 52.9004 33.2767 52.9004 33.166ZM62.666 28.8398C62.666 28.332 62.7376 27.8047 62.8809 27.2578C63.0306 26.7044 63.2422 26.1901 63.5156 25.7148C63.776 25.2396 64.0951 24.7936 64.4727 24.377C64.8568 23.9603 65.2832 23.599 65.752 23.293C66.2207 22.9805 66.7253 22.7363 67.2656 22.5605C67.8125 22.3783 68.3822 22.2871 68.9746 22.2871C69.4238 22.2871 69.8568 22.349 70.2734 22.4727C70.6901 22.5898 71.0807 22.7526 71.4453 22.9609C71.8099 23.1693 72.1419 23.4167 72.4414 23.7031C72.7474 23.9896 73.0078 24.2988 73.2227 24.6309C73.4375 24.9564 73.6035 25.2982 73.7207 25.6562C73.8379 26.0143 73.8965 26.3724 73.8965 26.7305C73.8965 27.0495 73.877 27.3327 73.8379 27.5801C73.8053 27.821 73.763 28.0618 73.7109 28.3027C73.6719 28.5501 73.6328 28.8073 73.5938 29.0742C73.5547 29.3346 73.5352 29.6406 73.5352 29.9922C73.5352 30.2982 73.5579 30.5521 73.6035 30.7539C73.6491 30.9492 73.7142 31.1087 73.7988 31.2324C73.8835 31.3561 73.9844 31.444 74.1016 31.4961C74.2253 31.5417 74.362 31.5645 74.5117 31.5645C74.5508 31.5645 74.5996 31.5547 74.6582 31.5352C74.7168 31.5091 74.7721 31.4831 74.8242 31.457C74.8763 31.4245 74.9219 31.3952 74.9609 31.3691C75 31.3366 75.026 31.3105 75.0391 31.291C75.1107 31.2194 75.179 31.1576 75.2441 31.1055C75.3158 31.0469 75.4102 31.0176 75.5273 31.0176C75.7617 31.0176 75.9375 31.0729 76.0547 31.1836C76.1784 31.2943 76.2402 31.4766 76.2402 31.7305C76.2402 31.8867 76.1914 32.0495 76.0938 32.2188C76.0026 32.388 75.8724 32.5443 75.7031 32.6875C75.5339 32.8242 75.332 32.9382 75.0977 33.0293C74.8633 33.1204 74.6029 33.166 74.3164 33.166C73.7435 33.166 73.252 33.0065 72.8418 32.6875C72.4382 32.362 72.1484 31.9193 71.9727 31.3594C71.7318 31.6133 71.4681 31.8574 71.1816 32.0918C70.8952 32.3197 70.5794 32.5215 70.2344 32.6973C69.8893 32.8665 69.5052 33 69.082 33.0977C68.6654 33.2018 68.2031 33.2539 67.6953 33.2539C67.3112 33.2539 66.9173 33.2018 66.5137 33.0977C66.1165 32.9935 65.7292 32.847 65.3516 32.6582C64.9805 32.4694 64.6322 32.2415 64.3066 31.9746C63.9811 31.7012 63.6947 31.4017 63.4473 31.0762C63.2064 30.7507 63.0143 30.3991 62.8711 30.0215C62.7344 29.6439 62.666 29.25 62.666 28.8398ZM64.4922 28.8203C64.4922 29.224 64.5996 29.5951 64.8145 29.9336C65.0358 30.2721 65.319 30.5618 65.6641 30.8027C66.0091 31.0436 66.3932 31.2324 66.8164 31.3691C67.2461 31.4993 67.666 31.5645 68.0762 31.5645C68.623 31.5645 69.1243 31.4603 69.5801 31.252C70.0423 31.0436 70.4362 30.7734 70.7617 30.4414C71.0938 30.1094 71.3509 29.7383 71.5332 29.3281C71.7155 28.9115 71.8066 28.5013 71.8066 28.0977C71.8066 27.8698 71.8555 27.6712 71.9531 27.502C72.0573 27.3262 72.1549 27.1602 72.2461 27.0039C72.2721 26.9714 72.2852 26.9225 72.2852 26.8574C72.2917 26.7858 72.2917 26.7142 72.2852 26.6426C72.2852 26.5645 72.2819 26.4928 72.2754 26.4277C72.2689 26.3626 72.2656 26.3171 72.2656 26.291C72.2656 26.1478 72.2168 25.9915 72.1191 25.8223C72.0215 25.653 71.888 25.4837 71.7188 25.3145C71.556 25.1452 71.3672 24.9824 71.1523 24.8262C70.944 24.6634 70.7292 24.5202 70.5078 24.3965C70.2865 24.2728 70.0651 24.1751 69.8438 24.1035C69.6224 24.0254 69.4238 23.9863 69.248 23.9863C68.7533 23.9863 68.291 24.0547 67.8613 24.1914C67.4382 24.3281 67.0508 24.5137 66.6992 24.748C66.3477 24.9824 66.0319 25.2591 65.752 25.5781C65.4785 25.8906 65.2474 26.2259 65.0586 26.584C64.8763 26.9421 64.7363 27.3132 64.6387 27.6973C64.541 28.0814 64.4922 28.4557 64.4922 28.8203ZM78.2031 32.0234C78.2031 31.9258 78.291 31.737 78.4668 31.457C78.6426 31.1706 78.8607 30.8288 79.1211 30.4316C79.388 30.0345 79.6745 29.5983 79.9805 29.123C80.2865 28.6413 80.5664 28.153 80.8203 27.6582C80.8529 27.5931 80.9408 27.4661 81.084 27.2773C81.2272 27.0885 81.3932 26.8574 81.582 26.584C81.7773 26.304 81.9824 25.9915 82.1973 25.6465C82.4121 25.2949 82.6074 24.9238 82.7832 24.5332C82.7962 24.4941 82.8027 24.4648 82.8027 24.4453C82.8027 24.3737 82.7572 24.3086 82.666 24.25C82.5814 24.1914 82.4512 24.1621 82.2754 24.1621C81.9173 24.1621 81.5592 24.1751 81.2012 24.2012C80.8431 24.2272 80.4818 24.2598 80.1172 24.2988C79.7591 24.3314 79.3945 24.3607 79.0234 24.3867C78.6523 24.4128 78.278 24.4258 77.9004 24.4258C77.7702 24.4258 77.6432 24.4193 77.5195 24.4062C77.3958 24.3867 77.2819 24.3509 77.1777 24.2988C77.0801 24.2402 76.9987 24.1589 76.9336 24.0547C76.875 23.944 76.8457 23.8008 76.8457 23.625C76.8457 23.5404 76.8555 23.4362 76.875 23.3125C76.901 23.1888 76.9401 23.0716 76.9922 22.9609C77.0443 22.8438 77.1126 22.7461 77.1973 22.668C77.2819 22.5833 77.3828 22.541 77.5 22.541H81.5918C81.7936 22.541 81.9889 22.5312 82.1777 22.5117C82.373 22.4922 82.5684 22.4727 82.7637 22.4531C82.959 22.4271 83.1576 22.4043 83.3594 22.3848C83.5612 22.3652 83.7695 22.3555 83.9844 22.3555C84.1602 22.3555 84.3034 22.4043 84.4141 22.502C84.5247 22.5931 84.6126 22.707 84.6777 22.8438C84.7493 22.974 84.7982 23.1139 84.8242 23.2637C84.8503 23.4134 84.8633 23.5469 84.8633 23.6641C84.8633 24.0938 84.7819 24.5104 84.6191 24.9141C84.4564 25.3177 84.2546 25.7148 84.0137 26.1055C83.7728 26.4896 83.5124 26.8672 83.2324 27.2383C82.959 27.6094 82.7116 27.9772 82.4902 28.3418L80.6836 31.0566C80.6576 31.0892 80.6445 31.1283 80.6445 31.1738C80.6445 31.252 80.6868 31.3138 80.7715 31.3594C80.8626 31.3984 80.9798 31.4245 81.123 31.4375C81.2728 31.4505 81.4388 31.457 81.6211 31.457C81.8034 31.457 81.9889 31.457 82.1777 31.457C82.4251 31.457 82.6823 31.4473 82.9492 31.4277C83.2227 31.4082 83.4928 31.3757 83.7598 31.3301C84.0332 31.278 84.3034 31.2096 84.5703 31.125C84.8372 31.0339 85.0911 30.9199 85.332 30.7832C85.4232 30.7311 85.5143 30.7051 85.6055 30.7051C85.7422 30.7051 85.8626 30.7572 85.9668 30.8613C86.0775 30.9655 86.1686 31.0924 86.2402 31.2422C86.3118 31.3919 86.3672 31.5482 86.4062 31.7109C86.4453 31.8737 86.4648 32.0104 86.4648 32.1211C86.4648 32.2448 86.4388 32.3685 86.3867 32.4922C86.3346 32.6159 86.2565 32.7298 86.1523 32.834C86.0547 32.9316 85.9342 33.0098 85.791 33.0684C85.6478 33.1335 85.485 33.166 85.3027 33.166C85.1725 33.166 85.0521 33.1562 84.9414 33.1367C84.8372 33.1237 84.7363 33.1074 84.6387 33.0879C84.541 33.0749 84.4434 33.0586 84.3457 33.0391C84.2546 33.026 84.1569 33.0195 84.0527 33.0195C83.7142 33.0195 83.3984 33.0228 83.1055 33.0293C82.8125 33.0358 82.5228 33.0423 82.2363 33.0488C81.9564 33.0618 81.6699 33.0716 81.377 33.0781C81.084 33.0846 80.7682 33.0879 80.4297 33.0879C80.1823 33.0879 79.9251 33.0814 79.6582 33.0684C79.3978 33.0618 79.1602 33.026 78.9453 32.9609C78.7305 32.8893 78.5514 32.7819 78.4082 32.6387C78.2715 32.4954 78.2031 32.2904 78.2031 32.0234ZM90.6445 20.1875C90.5339 20.1875 90.3743 20.1615 90.166 20.1094C89.9642 20.0508 89.7624 19.9661 89.5605 19.8555C89.3652 19.7448 89.1927 19.6048 89.043 19.4355C88.8997 19.2663 88.8281 19.0677 88.8281 18.8398C88.8281 18.7292 88.8509 18.6152 88.8965 18.498C88.9421 18.3809 89.0039 18.2734 89.082 18.1758C89.1667 18.0781 89.2676 18 89.3848 17.9414C89.502 17.8763 89.6322 17.8438 89.7754 17.8438C89.8991 17.8438 90.0521 17.8926 90.2344 17.9902C90.4232 18.0879 90.6022 18.2148 90.7715 18.3711C90.9408 18.5208 91.0872 18.6901 91.2109 18.8789C91.3346 19.0612 91.3965 19.2402 91.3965 19.416C91.3965 19.4616 91.3802 19.5267 91.3477 19.6113C91.3216 19.696 91.276 19.7806 91.2109 19.8652C91.1523 19.9499 91.0742 20.0247 90.9766 20.0898C90.8854 20.1549 90.7747 20.1875 90.6445 20.1875ZM89.2871 32.3066C89.2741 32.2546 89.2578 32.1536 89.2383 32.0039C89.2253 31.8542 89.209 31.6068 89.1895 31.2617C89.1764 30.9167 89.1634 30.4512 89.1504 29.8652C89.1439 29.2728 89.1406 28.5111 89.1406 27.5801C89.1406 26.8509 89.1829 26.1055 89.2676 25.3438C89.3587 24.5755 89.4694 23.8496 89.5996 23.166C89.6061 23.1074 89.6289 23.0293 89.668 22.9316C89.7135 22.8275 89.7721 22.7266 89.8438 22.6289C89.9219 22.5247 90.013 22.4368 90.1172 22.3652C90.2214 22.2871 90.3418 22.248 90.4785 22.248C90.6217 22.248 90.7389 22.2741 90.8301 22.3262C90.9212 22.3717 90.9896 22.4401 91.0352 22.5312C91.0872 22.6159 91.123 22.7168 91.1426 22.834C91.1621 22.9447 91.1719 23.0618 91.1719 23.1855C91.1719 23.5306 91.1589 23.9115 91.1328 24.3281C91.1068 24.7383 91.0775 25.1582 91.0449 25.5879C91.0189 26.0111 90.9928 26.4277 90.9668 26.8379C90.9473 27.248 90.9375 27.6191 90.9375 27.9512C90.9375 28.2441 90.957 28.5762 90.9961 28.9473C91.0417 29.3184 91.0905 29.6992 91.1426 30.0898C91.2012 30.4805 91.25 30.8646 91.2891 31.2422C91.3346 31.6133 91.3574 31.9518 91.3574 32.2578C91.3574 32.5768 91.276 32.8242 91.1133 33C90.9505 33.1693 90.7682 33.2539 90.5664 33.2539C90.1758 33.2539 89.8828 33.1823 89.6875 33.0391C89.4922 32.9023 89.3587 32.6582 89.2871 32.3066ZM94.5898 32.1211C94.5898 31.9779 94.6322 31.8346 94.7168 31.6914C94.8014 31.5417 94.9089 31.4082 95.0391 31.291C95.1758 31.1738 95.3223 31.0794 95.4785 31.0078C95.6413 30.9362 95.7975 30.9004 95.9473 30.9004C96.1035 30.9004 96.263 30.9167 96.4258 30.9492C96.5885 30.9818 96.735 31.0404 96.8652 31.125C97.002 31.2031 97.1126 31.3171 97.1973 31.4668C97.2819 31.61 97.3242 31.7923 97.3242 32.0137C97.3242 32.7949 96.9173 33.1855 96.1035 33.1855C95.9668 33.1855 95.8105 33.1693 95.6348 33.1367C95.4655 33.1107 95.3027 33.0586 95.1465 32.9805C94.9902 32.8958 94.8568 32.7852 94.7461 32.6484C94.6419 32.5117 94.5898 32.3359 94.5898 32.1211ZM105.879 33.1465C105.234 33.1465 104.701 33.0195 104.277 32.7656C103.854 32.5052 103.512 32.1602 103.252 31.7305C102.992 31.2943 102.796 30.7995 102.666 30.2461C102.536 29.6862 102.445 29.1068 102.393 28.5078C102.34 27.9023 102.311 27.3001 102.305 26.7012C102.298 26.1022 102.288 25.5488 102.275 25.041C102.1 25.041 101.94 25.041 101.797 25.041C101.66 25.041 101.523 25.0443 101.387 25.0508C101.309 25.0573 101.237 25.0638 101.172 25.0703C101.107 25.0703 101.035 25.0736 100.957 25.0801C100.885 25.0801 100.801 25.0833 100.703 25.0898C100.612 25.0898 100.498 25.0898 100.361 25.0898C100.283 25.0898 100.179 25.0703 100.049 25.0312C99.9186 24.9922 99.7884 24.9368 99.6582 24.8652C99.528 24.7936 99.4141 24.7057 99.3164 24.6016C99.2253 24.4909 99.1797 24.3672 99.1797 24.2305C99.1797 24.0938 99.209 23.9668 99.2676 23.8496C99.3262 23.7324 99.4043 23.6348 99.502 23.5566C99.6061 23.472 99.7266 23.4069 99.8633 23.3613C100 23.3158 100.143 23.293 100.293 23.293L102.344 23.3418C102.363 23.179 102.383 23.0163 102.402 22.8535C102.422 22.6908 102.438 22.5312 102.451 22.375C102.471 22.1862 102.484 22.0104 102.49 21.8477C102.497 21.6849 102.507 21.5286 102.52 21.3789C102.533 21.2227 102.546 21.0697 102.559 20.9199C102.578 20.7637 102.607 20.6009 102.646 20.4316C102.666 20.321 102.712 20.2135 102.783 20.1094C102.855 19.9987 102.936 19.901 103.027 19.8164C103.125 19.7318 103.226 19.6634 103.33 19.6113C103.441 19.5592 103.545 19.5332 103.643 19.5332C103.721 19.5332 103.802 19.5527 103.887 19.5918C103.971 19.6309 104.049 19.6895 104.121 19.7676C104.193 19.8392 104.251 19.9271 104.297 20.0312C104.349 20.1289 104.375 20.2396 104.375 20.3633C104.375 20.6237 104.372 20.8418 104.365 21.0176C104.365 21.1934 104.359 21.3431 104.346 21.4668C104.339 21.5905 104.329 21.6979 104.316 21.7891C104.303 21.8802 104.29 21.9714 104.277 22.0625C104.264 22.1341 104.251 22.2122 104.238 22.2969C104.232 22.375 104.222 22.4661 104.209 22.5703C104.202 22.6745 104.193 22.7949 104.18 22.9316C104.167 23.0618 104.15 23.2181 104.131 23.4004C104.502 23.3939 104.854 23.3874 105.186 23.3809C105.524 23.3678 105.856 23.3581 106.182 23.3516C106.507 23.3385 106.839 23.3288 107.178 23.3223C107.516 23.3158 107.878 23.3125 108.262 23.3125C108.392 23.3125 108.506 23.3483 108.604 23.4199C108.708 23.485 108.792 23.5664 108.857 23.6641C108.929 23.7617 108.981 23.8659 109.014 23.9766C109.053 24.0807 109.072 24.1719 109.072 24.25C109.072 24.3867 109.043 24.5104 108.984 24.6211C108.926 24.7253 108.854 24.8132 108.77 24.8848C108.685 24.9564 108.59 25.0085 108.486 25.041C108.382 25.0736 108.288 25.0898 108.203 25.0898L104.209 25.0215C104.183 25.0475 104.17 25.0768 104.17 25.1094C104.17 25.4544 104.163 25.8516 104.15 26.3008C104.137 26.7435 104.134 27.196 104.141 27.6582C104.154 28.1204 104.183 28.5762 104.229 29.0254C104.274 29.4681 104.355 29.8652 104.473 30.2168C104.596 30.5618 104.762 30.8418 104.971 31.0566C105.179 31.2715 105.452 31.3789 105.791 31.3789C105.902 31.3789 106.032 31.3594 106.182 31.3203C106.338 31.2747 106.491 31.2227 106.641 31.1641C106.79 31.1055 106.93 31.0404 107.061 30.9688C107.191 30.8971 107.292 30.832 107.363 30.7734C107.435 30.7083 107.529 30.6497 107.646 30.5977C107.764 30.5456 107.861 30.5195 107.939 30.5195C108.187 30.5195 108.343 30.5814 108.408 30.7051C108.48 30.8223 108.516 30.985 108.516 31.1934C108.516 31.265 108.499 31.3529 108.467 31.457C108.434 31.5547 108.392 31.6361 108.34 31.7012C108.216 31.8574 108.053 32.0234 107.852 32.1992C107.656 32.3685 107.445 32.5247 107.217 32.668C106.989 32.8047 106.758 32.9186 106.523 33.0098C106.289 33.1009 106.074 33.1465 105.879 33.1465ZM115.01 33.0586C114.404 32.1862 113.89 31.2585 113.467 30.2754C113.044 29.2923 112.676 28.3125 112.363 27.3359C112.272 27.043 112.178 26.7467 112.08 26.4473C111.982 26.1413 111.878 25.8418 111.768 25.5488C111.696 25.3665 111.615 25.1875 111.523 25.0117C111.439 24.8359 111.354 24.6602 111.27 24.4844C111.191 24.3086 111.123 24.1296 111.064 23.9473C111.012 23.7585 110.986 23.5566 110.986 23.3418C110.986 23.2507 110.993 23.1562 111.006 23.0586C111.025 22.9609 111.061 22.8698 111.113 22.7852C111.172 22.7005 111.247 22.6322 111.338 22.5801C111.436 22.528 111.562 22.502 111.719 22.502C111.921 22.502 112.087 22.5215 112.217 22.5605C112.347 22.5931 112.458 22.6517 112.549 22.7363C112.64 22.821 112.715 22.9349 112.773 23.0781C112.839 23.2148 112.907 23.3841 112.979 23.5859C113.161 24.1263 113.343 24.6797 113.525 25.2461C113.714 25.806 113.913 26.3724 114.121 26.9453C114.336 27.5117 114.561 28.0814 114.795 28.6543C115.036 29.2207 115.303 29.7806 115.596 30.334C115.622 30.3861 115.651 30.4609 115.684 30.5586C115.716 30.6497 115.749 30.7441 115.781 30.8418C115.82 30.9329 115.856 31.0143 115.889 31.0859C115.928 31.1576 115.967 31.1934 116.006 31.1934C116.058 31.1934 116.146 31.0892 116.27 30.8809C116.393 30.6725 116.536 30.4056 116.699 30.0801C116.862 29.7546 117.038 29.3932 117.227 28.9961C117.415 28.599 117.598 28.2083 117.773 27.8242C117.956 27.4401 118.122 27.0885 118.271 26.7695C118.421 26.444 118.542 26.1934 118.633 26.0176C118.704 25.8743 118.796 25.6953 118.906 25.4805C119.023 25.2591 119.15 25.0215 119.287 24.7676C119.424 24.5072 119.564 24.2467 119.707 23.9863C119.85 23.7194 119.99 23.472 120.127 23.2441C120.264 23.0098 120.391 22.8079 120.508 22.6387C120.625 22.4629 120.723 22.3392 120.801 22.2676C120.892 22.2025 120.986 22.1504 121.084 22.1113C121.182 22.0658 121.273 22.043 121.357 22.043C121.592 22.043 121.781 22.1406 121.924 22.3359C122.067 22.5312 122.139 22.7754 122.139 23.0684C122.139 23.3288 122.044 23.6217 121.855 23.9473C121.673 24.2728 121.458 24.6309 121.211 25.0215C121.035 25.2949 120.853 25.5879 120.664 25.9004C120.475 26.2064 120.319 26.5059 120.195 26.7988C120.078 27.0723 119.938 27.3815 119.775 27.7266C119.613 28.0651 119.434 28.4232 119.238 28.8008C119.043 29.1719 118.835 29.5527 118.613 29.9434C118.398 30.334 118.18 30.7116 117.959 31.0762C117.744 31.4408 117.529 31.7858 117.314 32.1113C117.106 32.4368 116.911 32.7201 116.729 32.9609C116.637 33.0846 116.494 33.1725 116.299 33.2246C116.104 33.2832 115.911 33.3125 115.723 33.3125C115.573 33.3125 115.423 33.2832 115.273 33.2246C115.13 33.166 115.042 33.1107 115.01 33.0586Z" fill="white"/>
</g>
<defs>
<filter id="filter0_b_144_651" x="-4" y="-4" width="58" height="58" filterUnits="userSpaceOnUse" color-interpolation-filters="sRGB">
<feFlood flood-opacity="0" result="BackgroundImageFix"/>
<feGaussianBlur in="BackgroundImageFix" stdDeviation="2"/>
<feComposite in2="SourceAlpha" operator="in" result="effect1_backgroundBlur_144_651"/>
<feBlend mode="normal" in="SourceGraphic" in2="effect1_backgroundBlur_144_651" result="shape"/>
</filter>
<clipPath id="clip0_144_651">
<rect width="123" height="50" fill="white"/>
</clipPath>
</defs>
</svg>
